<svg viewBox="0 29.6 291 68.8" fill="none" xmlns="http://www.w3.org/2000/svg">
  <!-- ableneo logo — use on lime (#CDDE00) backgrounds -->
  <path d="M74.1511 51.7808C68.7847 51.7808 64.4229 47.6016 64.4229 42.4599C64.4229 37.3182 68.7847 33.1389 74.1511 33.1389C79.5174 33.1389 83.8793 37.3182 83.8793 42.4599C83.8793 47.6016 79.5174 51.7808 74.1511 51.7808ZM62.9161 75.6531C62.5592 75.6278 62.1891 75.6025 61.8322 75.6025C58.6468 75.6025 55.7653 76.8056 53.6241 78.7685L37.7629 67.472C39.6133 64.5338 40.684 61.1018 40.684 57.4291C40.684 56.2007 40.565 55.0102 40.3271 53.8451L62.0041 47.8169C63.3787 50.679 65.824 52.9713 68.8508 54.2251L62.9161 75.6658V75.6531ZM69.7364 86.975C69.7364 91.1543 66.1808 94.561 61.819 94.561C57.4572 94.561 53.9016 91.1543 53.9016 86.975C53.9016 82.7958 57.4572 79.3891 61.819 79.3891C66.1808 79.3891 69.7364 82.7958 69.7364 86.975ZM20.3288 73.1329C11.2879 73.1329 3.93886 66.0915 3.93886 57.4291C3.93886 48.7667 11.2879 41.7254 20.3288 41.7254C29.3696 41.7254 36.7187 48.7667 36.7187 57.4291C36.7187 66.0915 29.3696 73.1329 20.3288 73.1329ZM74.1511 29.6562C66.7756 29.6562 60.788 35.4059 60.788 42.4599C60.788 43.0425 60.8277 43.6123 60.907 44.1696L39.23 50.1978C36.2296 43.0171 28.8938 37.9261 20.342 37.9261C9.12019 37.9387 0 46.6771 0 57.4291C0 68.1812 9.12019 76.9195 20.342 76.9195C26.3031 76.9195 31.6827 74.45 35.4101 70.5114L51.2713 81.808C50.4386 83.353 49.976 85.1134 49.976 86.975C49.976 93.2439 55.3027 98.3476 61.8454 98.3476C68.3882 98.3476 73.7149 93.2439 73.7149 86.975C73.7149 82.3779 70.8599 78.4266 66.7624 76.6283L72.6971 55.1875C73.1862 55.2382 73.6752 55.2635 74.1775 55.2635C81.553 55.2635 87.5406 49.5139 87.5406 42.4599C87.5406 35.4059 81.5265 29.6562 74.1511 29.6562Z" fill="#1D2024"/>
  <path d="M113.821 70.0843C113.821 65.6264 110.543 62.435 106.524 62.435C102.506 62.435 99.334 65.6264 99.334 70.0843C99.334 74.5421 102.453 77.7842 106.524 77.7842C110.595 77.7842 113.821 74.5421 113.821 70.0843ZM120.165 57.4199V82.7613H113.821V80.3297C111.811 82.3053 109.168 83.5718 106.049 83.5718C98.2237 83.5718 92.8838 77.7462 92.8838 70.0969C92.8838 62.4477 98.2237 56.6221 106.049 56.6221C109.168 56.6221 111.811 57.7872 113.821 59.7122V57.4326H120.165V57.4199Z" fill="#1D2024"/>
  <path d="M147.353 70.0838C147.353 65.6259 144.234 62.4345 140.163 62.4345C136.092 62.4345 132.867 65.6259 132.867 70.0838C132.867 74.5416 136.145 77.7837 140.163 77.7837C144.181 77.7837 147.353 74.5416 147.353 70.0838ZM153.804 70.0838C153.804 77.733 148.464 83.5586 140.639 83.5586C137.52 83.5586 134.876 82.2922 132.867 80.3165V82.7481H126.522V44.8438H132.867V59.6863C134.876 57.7614 137.52 56.5963 140.639 56.5963C148.464 56.5963 153.804 62.4725 153.804 70.0711" fill="#1D2024"/>
  <path d="M164.904 44.8438H158.56V82.7481H164.904V44.8438Z" fill="#1D2024"/>
  <path d="M176.445 67.601H191.09C190.086 64.3083 187.231 62.1807 183.741 62.1807C180.252 62.1807 177.397 64.3083 176.445 67.601ZM183.741 78.0365C187.231 78.0365 189.398 76.4661 190.932 73.8826L196.43 76.1115C194.104 80.5693 189.346 83.5581 183.741 83.5581C175.916 83.5581 169.678 77.6312 169.678 70.0833C169.678 62.5353 175.916 56.6084 183.741 56.6084C191.566 56.6084 197.858 62.586 197.858 70.0833C197.858 70.8431 197.805 71.5523 197.699 72.2615H176.379C177.225 75.7569 180.133 78.0365 183.728 78.0365" fill="#1D2024"/>
  <path d="M227.213 68.6658V82.7485H220.869V68.6658C220.869 64.2079 217.749 61.979 214.683 61.979C211.616 61.979 208.444 64.2079 208.444 68.6658V82.7485H202.1V57.4072H208.444V59.6361C210.718 57.6098 213.731 56.5967 216.428 56.5967C221.82 56.5967 227.213 60.6493 227.213 68.6531" fill="#1D2024"/>
  <path d="M238.223 67.601H252.869C251.864 64.3083 249.009 62.1807 245.52 62.1807C242.03 62.1807 239.175 64.3083 238.223 67.601ZM245.52 78.0365C249.009 78.0365 251.177 76.4661 252.71 73.8826L258.209 76.1115C255.882 80.5693 251.124 83.5581 245.52 83.5581C237.695 83.5581 231.456 77.6312 231.456 70.0833C231.456 62.5353 237.695 56.6084 245.52 56.6084C253.344 56.6084 259.636 62.586 259.636 70.0833C259.636 70.8431 259.583 71.5523 259.477 72.2615H238.157C239.003 75.7569 241.911 78.0365 245.506 78.0365" fill="#1D2024"/>
  <path d="M284.554 70.0833C284.554 65.3721 281.117 62.1807 276.887 62.1807C272.658 62.1807 269.274 65.3721 269.274 70.0833C269.274 74.7944 272.605 78.0365 276.887 78.0365C281.17 78.0365 284.554 74.7944 284.554 70.0833ZM262.811 70.0833C262.811 62.586 269.049 56.6084 276.874 56.6084C284.699 56.6084 290.991 62.586 290.991 70.0833C290.991 77.5805 284.752 83.6088 276.874 83.6088C268.996 83.6088 262.811 77.6312 262.811 70.0833Z" fill="#1D2024"/>
</svg>
